<?xml version="1.0" encoding="UTF-8"?>
<svg version="1.1" xmlns="http://www.w3.org/2000/svg" width="1024" height="1024">
<path d="M0 0 C1.33683838 0.63953613 1.33683838 0.63953613 2.70068359 1.29199219 C26.3151288 12.64673591 49.74778999 25.65103214 71.26953125 40.62109375 C72.09155029 41.19013428 72.91356934 41.7591748 73.76049805 42.34545898 C75.29633087 43.42014551 76.82080228 44.51132267 78.33129883 45.62133789 C82.10194929 48.44408527 82.10194929 48.44408527 86.58203125 48.5859375 C87.37996094 48.06257813 88.17789062 47.53921875 89 47 C90.51787109 46.02933594 90.51787109 46.02933594 92.06640625 45.0390625 C93.23367284 44.23713651 94.39891134 43.43225338 95.5625 42.625 C104.80397192 36.3494709 114.36471168 30.64622497 124 25 C124.84868652 24.50209961 125.69737305 24.00419922 126.57177734 23.49121094 C140.15389871 15.55343964 153.95767934 8.09126499 168 1 C169.38759521 0.29810547 169.38759521 0.29810547 170.80322266 -0.41796875 C230.26686983 -30.25950386 306.03802897 -55.44887851 372.17578125 -33.72265625 C401.82060669 -23.42972606 426.1402278 -2.25253615 440.0078125 25.984375 C464.45356621 78.22788933 452.38128804 139.56467191 433.71386719 191.58398438 C427.35218533 208.78461192 419.94457612 225.47845731 412 242 C411.57364258 242.89122559 411.14728516 243.78245117 410.70800781 244.70068359 C398.913673 269.2293458 385.29806867 293.49257497 369.69140625 315.80078125 C368.96763794 316.83912109 368.96763794 316.83912109 368.22924805 317.8984375 C367.3589485 319.12849851 366.4722452 320.34720336 365.56567383 321.55078125 C364.26680632 323.28625718 364.26680632 323.28625718 363 326 C363.85268759 330.29029425 366.71490675 333.70146244 369.1875 337.25 C407.99993172 394.3398744 439.28669586 459.64415799 451 528 C451.13277344 528.76199707 451.26554688 529.52399414 451.40234375 530.30908203 C457.64792191 568.05447925 453.18467683 610.48995912 431.6875 642.8125 C426.93535861 649.35281831 421.66734979 655.25168807 416 661 C414.83210937 662.18722656 414.83210937 662.18722656 413.640625 663.3984375 C386.31361605 689.53332861 348.22559244 696.00250046 311.875 695.28125 C236.21078306 693.332624 155.17708231 653.98392948 94.3359375 610.40625 C93.27632812 609.6534375 92.21671875 608.900625 91.125 608.125 C90.24070312 607.46757813 89.35640625 606.81015625 88.4453125 606.1328125 C86.06184956 604.72762497 86.06184956 604.72762497 83.5703125 605.54296875 C80.51621013 607.27424563 77.62731407 609.18261003 74.75 611.1875 C17.6601256 649.99993172 -47.64415799 681.28669586 -116 693 C-116.76199707 693.13277344 -117.52399414 693.26554688 -118.30908203 693.40234375 C-156.05447925 699.64792191 -198.48995912 695.18467683 -230.8125 673.6875 C-237.35281831 668.93535861 -243.25168807 663.66734979 -249 658 C-250.18722656 656.83210937 -250.18722656 656.83210937 -251.3984375 655.640625 C-277.49925838 628.34924036 -283.97603569 590.42090611 -283.28125 554.1328125 C-281.42871777 479.59721047 -243.28721252 400.98003537 -201.37890625 340.73046875 C-200.80986572 339.90844971 -200.2408252 339.08643066 -199.65454102 338.23950195 C-198.57985449 336.70366913 -197.48867733 335.17919772 -196.37866211 333.66870117 C-193.55591473 329.89805071 -193.55591473 329.89805071 -193.4140625 325.41796875 C-193.93742187 324.62003906 -194.46078125 323.82210938 -195 323 C-195.97066406 321.48212891 -195.97066406 321.48212891 -196.9609375 319.93359375 C-197.76286349 318.76632716 -198.56774662 317.60108866 -199.375 316.4375 C-205.6505291 307.19602808 -211.35377503 297.63528832 -217 288 C-217.49790039 287.15131348 -217.99580078 286.30262695 -218.50878906 285.42822266 C-258.07589729 217.72593617 -299.01396327 130.20735617 -278.74609375 49.91015625 C-275.78955006 38.92500462 -271.65796879 28.85999507 -266 19 C-265.65066406 18.38930664 -265.30132812 17.77861328 -264.94140625 17.14941406 C-259.65544227 8.0829209 -253.40418648 0.41476389 -246 -7 C-245.22140625 -7.79019531 -244.4428125 -8.58039063 -243.640625 -9.39453125 C-178.43903695 -71.86115336 -68.68649182 -33.02869913 0 0 Z M-186.8671875 55.81640625 C-198.08299767 69.62691877 -198.18943517 88.32965544 -196.53515625 105.17578125 C-192.3611953 141.89000831 -178.06303165 177.24852884 -161.12792969 209.82226562 C-159.81399958 212.3591177 -158.52101756 214.90628248 -157.2265625 217.453125 C-150.99055193 229.64422648 -144.3338529 241.43618864 -137 253 C-133.01272506 249.1234827 -129.36466533 245.03604707 -125.75 240.8125 C-121.21633072 235.54629128 -116.63577179 230.33253626 -111.96875 225.18359375 C-110.16465216 223.18262015 -108.38992983 221.1604969 -106.625 219.125 C-92.58211098 203.03018199 -77.75886561 187.581924 -62.63598633 172.50561523 C-60.53542896 170.41049908 -58.44038126 168.3099769 -56.34570312 166.20898438 C-54.98209189 164.84603287 -53.61817107 163.48339103 -52.25390625 162.12109375 C-51.64229141 161.50745468 -51.03067657 160.89381561 -50.40052795 160.26158142 C-46.67394977 156.55485768 -42.82992148 153.04103609 -38.83677673 149.62269592 C-36.97970842 147.98207345 -35.23440948 146.26908039 -33.5 144.5 C-30.51127663 141.46405075 -27.38293521 138.65491341 -24.15625 135.875 C-21.80037042 133.82640906 -19.4949254 131.72796998 -17.1875 129.625 C-12.86515586 125.72499178 -8.41840168 122.01466788 -3.89453125 118.3515625 C-0.6787938 115.73904705 2.50728591 113.09303071 5.6875 110.4375 C6.21714355 109.99543213 6.74678711 109.55336426 7.29248047 109.09790039 C8.52867134 108.06568718 9.76439054 107.03290913 11 106 C-26.01501718 75.4016914 -144.2136912 14.32294228 -186.8671875 55.81640625 Z M202.17773438 80.87207031 C199.6408823 82.18600042 197.09371752 83.47898244 194.546875 84.7734375 C182.35577352 91.00944807 170.56381136 97.6661471 159 105 C162.8765173 108.98727494 166.96395293 112.63533467 171.1875 116.25 C176.45370872 120.78366928 181.66746374 125.36422821 186.81640625 130.03125 C188.81737985 131.83534784 190.8395031 133.61007017 192.875 135.375 C208.96981801 149.41788902 224.418076 164.24113439 239.49438477 179.36401367 C241.58950092 181.46457104 243.6900231 183.55961874 245.79101562 185.65429688 C247.15396713 187.01790811 248.51660897 188.38182893 249.87890625 189.74609375 C250.49254532 190.35770859 251.10618439 190.96932343 251.73841858 191.59947205 C255.46560829 195.34662583 258.99392238 199.21925933 262.4506073 203.21702576 C264.20409105 205.23485917 266.01581976 207.18505354 267.8671875 209.11328125 C268.52058105 209.79825684 269.17397461 210.48323242 269.84716797 211.18896484 C270.51635254 211.88973145 271.18553711 212.59049805 271.875 213.3125 C277.13949061 218.86136227 282.16534446 224.46207508 286.921875 230.453125 C289.22533975 233.27616826 291.65441842 235.94730379 294.125 238.625 C298.36048457 243.22447152 302.26340848 247.98900807 306 253 C309.83743023 248.56523393 312.62701983 243.7070245 315.5 238.625 C316.02190918 237.70525391 316.54381836 236.78550781 317.08154297 235.83789062 C322.98326365 225.36087735 328.57850217 214.73254387 334 204 C334.44085937 203.12907715 334.88171875 202.2581543 335.3359375 201.36083984 C354.207798 163.76723592 376.8349411 110.76699241 364 68 C360.13035945 58.2234315 354.72609193 52.90707255 345.1875 48.75 C300.26970892 32.44096844 241.27688731 60.54440125 202.17773438 80.87207031 Z M84 157 C81.85500759 158.55390075 79.9579611 160.10895108 78 161.875 C76.82364296 162.90447634 75.64654877 163.93311091 74.46875 164.9609375 C73.58896484 165.7358252 73.58896484 165.7358252 72.69140625 166.52636719 C70.34007794 168.57495519 67.92455956 170.53895918 65.5 172.5 C56.27861993 180.01917765 47.23845983 187.69530594 38.47265625 195.7421875 C36.38132061 197.65181151 34.26741136 199.52331252 32.125 201.375 C23.04201579 209.29491916 14.35338692 217.56717131 5.88476562 226.13671875 C2.97207596 229.0722915 0.04994245 231.90685456 -3.125 234.5625 C-7.14309024 237.96766122 -10.61468735 241.84596006 -14.14575195 245.73925781 C-18.08037187 250.05841838 -22.15723982 254.20592347 -26.3125 258.3125 C-30.44678442 262.40685572 -34.47626976 266.5127406 -38.23828125 270.95703125 C-40.09067479 273.10515059 -42.00834416 275.18593321 -43.93823242 277.2644043 C-48.68019829 282.37380201 -53.19062702 287.59763644 -57.5625 293.03125 C-60.42928411 296.52284603 -63.39834868 299.91471054 -66.375 303.3125 C-70.77563965 308.36678979 -75.11216141 313.4650652 -79.3125 318.6875 C-79.78671387 319.26346924 -80.26092773 319.83943848 -80.74951172 320.43286133 C-83.30862527 323.66080137 -84 324.72532951 -84 329 C-82.90732069 330.88220505 -82.90732069 330.88220505 -81.32421875 332.65234375 C-80.74913574 333.33965576 -80.17405273 334.02696777 -79.58154297 334.73510742 C-78.95650879 335.46189697 -78.33147461 336.18868652 -77.6875 336.9375 C-76.73061279 338.07312378 -76.73061279 338.07312378 -75.75439453 339.23168945 C-73.84456665 341.49498585 -71.92267702 343.74761928 -70 346 C-69.01303779 347.17079286 -68.02723394 348.34256389 -67.04296875 349.515625 C-64.82959527 352.15065053 -62.60292617 354.77393814 -60.36962891 357.39208984 C-58.93414579 359.0773112 -57.5041151 360.76706809 -56.07421875 362.45703125 C-50.13570992 369.45471106 -44.04961879 376.28137872 -37.7890625 382.9921875 C-35.376464 385.58095952 -33.02711998 388.21992565 -30.6875 390.875 C-26.11732706 395.98824651 -21.24788249 400.78297102 -16.37451172 405.60400391 C-13.22835338 408.72791106 -10.16160683 411.84787243 -7.3125 415.25 C-4.14178846 419.00013091 -0.54763298 422.22933735 3.09741211 425.50390625 C7.2863888 429.28791613 11.28234507 433.23551024 15.25 437.25 C19.36519583 441.40506854 23.49029699 445.45727165 27.95703125 449.23828125 C30.10554217 451.09101246 32.18666766 453.00908609 34.265625 454.93920898 C39.47864214 459.77786962 44.81890205 464.36731206 50.36328125 468.828125 C52.92420028 470.93756349 55.37123455 473.12887648 57.8125 475.375 C62.36636232 479.5287626 67.14242005 483.32373371 72.00756836 487.1003418 C76.11140047 490.28753578 80.0998977 493.5641956 84 497 C86.76962522 495.70589233 89.07073836 494.28316171 91.43359375 492.34765625 C92.07570801 491.82421631 92.71782227 491.30077637 93.37939453 490.76147461 C94.39815674 489.92048218 94.39815674 489.92048218 95.4375 489.0625 C96.1476123 488.48056885 96.85772461 487.8986377 97.58935547 487.29907227 C103.56822593 482.38675731 109.49397587 477.41349539 115.37597656 472.38574219 C117.06714221 470.94270908 118.76374619 469.50625183 120.4609375 468.0703125 C127.45773135 462.13358031 134.28272067 456.04836687 140.9921875 449.7890625 C143.58095952 447.376464 146.21992565 445.02711998 148.875 442.6875 C153.98824651 438.11732706 158.78297102 433.24788249 163.60400391 428.37451172 C166.72791106 425.22835338 169.84787243 422.16160683 173.25 419.3125 C177.00013091 416.14178846 180.22933735 412.54763298 183.50390625 408.90258789 C187.28791613 404.7136112 191.23551024 400.71765493 195.25 396.75 C199.40506854 392.63480417 203.45727165 388.50970301 207.23828125 384.04296875 C209.09101246 381.89445783 211.00908609 379.81333234 212.93920898 377.734375 C217.77786962 372.52135786 222.36731206 367.18109795 226.828125 361.63671875 C228.93756349 359.07579972 231.12887648 356.62876545 233.375 354.1875 C237.5287626 349.63363768 241.32373371 344.85757995 245.1003418 339.99243164 C248.28753578 335.88859953 251.5641956 331.9001023 255 328 C253.70589233 325.23037478 252.28316171 322.92926164 250.34765625 320.56640625 C249.82421631 319.92429199 249.30077637 319.28217773 248.76147461 318.62060547 C247.92048218 317.60184326 247.92048218 317.60184326 247.0625 316.5625 C246.48056885 315.8523877 245.8986377 315.14227539 245.29907227 314.41064453 C240.38675731 308.43177407 235.41349539 302.50602413 230.38574219 296.62402344 C228.94270908 294.93285779 227.50625183 293.23625381 226.0703125 291.5390625 C220.13358031 284.54226865 214.04836687 277.71727933 207.7890625 271.0078125 C205.376464 268.41904048 203.02711998 265.78007435 200.6875 263.125 C196.11663656 258.01098094 191.24639237 253.21558869 186.37231445 248.39379883 C183.24755918 245.29112384 180.20004327 242.19548932 177.375 238.8125 C173.97438804 234.78728585 170.08441443 231.31733309 166.19018555 227.78369141 C162.06924215 224.03053176 158.10325879 220.15362225 154.1875 216.1875 C150.29322333 212.25205036 146.36916773 208.44755178 142.14453125 204.86328125 C139.8381534 202.85937918 137.60771015 200.7873321 135.37548828 198.70166016 C130.04651715 193.72415139 124.62347311 188.96911195 118.93359375 184.40234375 C115.45095876 181.55038567 112.07235533 178.5916142 108.6875 175.625 C103.63366858 171.21375864 98.51151476 166.91193904 93.25 162.75 C92.66565186 162.28416504 92.08130371 161.81833008 91.47924805 161.33837891 C88.98920014 159.39067028 87.02498365 158.00832788 84 157 Z M-137 401 C-137.95533127 402.45336212 -138.85701617 403.94197597 -139.73828125 405.44140625 C-140.30506592 406.40570557 -140.87185059 407.37000488 -141.45581055 408.36352539 C-142.06851807 409.41918701 -142.68122559 410.47484863 -143.3125 411.5625 C-143.94260986 412.64716553 -144.57271973 413.73183105 -145.22192383 414.84936523 C-151.4923229 425.7277785 -157.36533103 436.78071377 -163 448 C-163.47034668 448.93134766 -163.94069336 449.86269531 -164.42529297 450.82226562 C-183.56179462 488.94994514 -207.05066898 542.514186 -194 586 C-190.13035945 595.7765685 -184.72609193 601.09292745 -175.1875 605.25 C-135.31601261 619.72678816 -84.49123273 597.81399085 -48.69140625 581.26074219 C-43.1298017 578.6555058 -37.62682785 575.96091609 -32.17773438 573.12792969 C-29.6408823 571.81399958 -27.09371752 570.52101756 -24.546875 569.2265625 C-12.35577352 562.99055193 -0.56381136 556.3338529 11 549 C7.1234827 545.01272506 3.03604707 541.36466533 -1.1875 537.75 C-6.45370872 533.21633072 -11.66746374 528.63577179 -16.81640625 523.96875 C-18.81737985 522.16465216 -20.8395031 520.38992983 -22.875 518.625 C-38.96981801 504.58211098 -54.418076 489.75886561 -69.49438477 474.63598633 C-71.58950092 472.53542896 -73.6900231 470.44038126 -75.79101562 468.34570312 C-77.15396713 466.98209189 -78.51660897 465.61817107 -79.87890625 464.25390625 C-80.49254532 463.64229141 -81.10618439 463.03067657 -81.73841858 462.40052795 C-85.46560829 458.65337417 -88.99392238 454.78074067 -92.4506073 450.78297424 C-94.20409105 448.76514083 -96.01581976 446.81494646 -97.8671875 444.88671875 C-98.84727783 443.85925537 -98.84727783 443.85925537 -99.84716797 442.81103516 C-100.51635254 442.11026855 -101.18553711 441.40950195 -101.875 440.6875 C-107.13949061 435.13863773 -112.16534446 429.53792492 -116.921875 423.546875 C-119.22533975 420.72383174 -121.65441842 418.05269621 -124.125 415.375 C-127.90749477 411.27385513 -131.3922243 407.05656453 -134.72265625 402.58203125 C-135.35494141 401.79892578 -135.35494141 401.79892578 -136 401 C-136.33 401 -136.66 401 -137 401 Z M306 401 C304.36037934 402.85187924 302.76716318 404.7227963 301.1875 406.625 C300.18003222 407.82581014 299.17220773 409.02632106 298.1640625 410.2265625 C297.37950684 411.16290527 297.37950684 411.16290527 296.57910156 412.11816406 C289.6152261 420.41710532 282.5470591 428.58847399 275.15966797 436.51416016 C272.44776533 439.42394623 269.7836796 442.36157725 267.1875 445.375 C264.53774931 448.44178168 261.73326577 451.2908401 258.84034729 454.12721252 C257.07015059 455.92861285 255.42480312 457.78679418 253.78491211 459.70678711 C250.00862383 464.04781569 246.01448077 468.13003722 241.94140625 472.19140625 C241.1934227 472.94034653 240.44543915 473.6892868 239.67478943 474.46092224 C238.10367536 476.03271225 236.53131608 477.60325849 234.95776367 479.17260742 C232.56900154 481.55601304 230.18562554 483.94471068 227.80273438 486.33398438 C226.2659455 487.87011237 224.7288464 489.40593009 223.19140625 490.94140625 C222.48907364 491.64576309 221.78674103 492.35011993 221.06312561 493.07582092 C217.08353806 497.03689367 213.00098108 500.81534409 208.75001526 504.48356628 C206.74134957 506.22412732 204.80382329 508.02649955 202.88671875 509.8671875 C201.85925537 510.84727783 201.85925537 510.84727783 200.81103516 511.84716797 C200.11026855 512.51635254 199.40950195 513.18553711 198.6875 513.875 C193.13863773 519.13949061 187.53792492 524.16534446 181.546875 528.921875 C178.72383174 531.22533975 176.05269621 533.65441842 173.375 536.125 C168.77552848 540.36048457 164.01099193 544.26340848 159 548 C163.43476607 551.83743023 168.2929755 554.62701983 173.375 557.5 C174.29474609 558.02190918 175.21449219 558.54381836 176.16210938 559.08154297 C186.63912265 564.98326365 197.26745613 570.57850217 208 576 C208.87092285 576.44085937 209.7418457 576.88171875 210.63916016 577.3359375 C248.42913229 596.30637417 300.91968786 618.9289725 344 606 C353.7765685 602.13035945 359.09292745 596.72609193 363.25 587.1875 C377.73848495 547.34416639 355.80438595 496.47046014 339.26074219 460.69140625 C336.6555058 455.1298017 333.96091609 449.62682785 331.12792969 444.17773438 C329.81399958 441.6408823 328.52101756 439.09371752 327.2265625 436.546875 C322.36700119 427.04512052 317.37507612 417.67426654 311.8125 408.5625 C311.34287842 407.79309082 310.87325684 407.02368164 310.3894043 406.23095703 C309.29210412 404.46667047 308.1509968 402.72973441 307 401 C306.67 401 306.34 401 306 401 Z " fill="#FEB600" transform="translate(427,185)"/>
<path d="M0 0 C9.00660576 7.03113091 15.1299065 16.14366859 17.25 27.4375 C18.4902648 41.90725605 16.04680052 54.0300928 6.5859375 65.4453125 C-2.05052568 74.55500654 -12.27170042 78.67953192 -24.69921875 79.4375 C-37.62534161 79.4375 -48.34878311 74.43865111 -57.62890625 65.66015625 C-66.91244766 55.85529286 -69.28109695 44.71139828 -69.01953125 31.578125 C-68.4732706 19.83486651 -62.78858884 9.95664034 -54.20703125 2.11328125 C-38.00161747 -10.53769834 -17.12245062 -11.43845467 0 0 Z " fill="#FEB600" transform="translate(537.75,476.5625)"/>
</svg>
